<?xml version="1.0" standalone="no"?>
<!DOCTYPE svg PUBLIC "-//W3C//DTD SVG 20010904//EN"
 "http://www.w3.org/TR/2001/REC-SVG-20010904/DTD/svg10.dtd">
<svg version="1.0" xmlns="http://www.w3.org/2000/svg"
 width="512.000000pt" height="512.000000pt" viewBox="0 0 512.000000 512.000000"
 preserveAspectRatio="xMidYMid meet">
<metadata>
Created by potrace 1.16, written by Peter Selinger 2001-2019
</metadata>
<g transform="translate(0.000000,512.000000) scale(0.100000,-0.100000)"
fill="#000000" stroke="none">
<path d="M3670 4256 c-300 -64 -551 -287 -645 -574 l-17 -52 -1223 -2 -1223
-3 -44 -30 c-136 -96 -124 -301 23 -376 37 -18 70 -19 1251 -19 l1213 0 28
-79 c88 -250 296 -446 562 -531 94 -30 316 -39 421 -17 331 70 592 331 665
662 19 87 16 295 -5 375 -46 177 -108 285 -235 410 -126 124 -223 180 -387
226 -81 22 -299 28 -384 10z m342 -460 c87 -41 161 -115 204 -201 124 -251
-29 -544 -314 -597 -155 -29 -341 62 -426 207 -130 222 -21 514 227 606 80 30
232 23 309 -15z"/>
<path d="M1095 2546 c-316 -73 -562 -309 -646 -622 -29 -107 -31 -317 -5 -417
42 -160 106 -276 214 -389 414 -433 1122 -327 1389 207 17 33 38 84 47 112
l18 53 1223 2 1223 3 44 30 c135 96 123 301 -23 375 -37 20 -64 20 -1251 20
l-1213 0 -25 72 c-85 250 -298 452 -565 538 -89 29 -335 38 -430 16z m267
-427 c268 -56 414 -351 294 -594 -43 -86 -117 -160 -204 -201 -75 -37 -212
-45 -293 -19 -168 54 -284 201 -296 373 -14 206 114 381 320 437 65 17 111 18
179 4z"/>
</g>
</svg>
